ffmpeg started on 2025-07-19 at 14:04:16
Report written to "D:\Convert\FFMetrics\reports\ssim_report-6.txt"
Log level: 32
Command line:
ffmpeg -hide_banner -nostdin -i "G:\\\xc0\xed\xe8\xec\xe5\\\xce\xed\xe3\xee\xe8\xed\xe3\xe8\\!_07_\xcb\xe5\xf2\xee_2017\\\xd1\xe5\xec\xfc - \xe2\xe5\xf0\xed\xee, \xf2\xf0\xe8 - \xed\xe5\xe2\xe5\xf0\xed\xee\\[AniDub]_Nana_Maru_San_Batsu_[06]_[720p_x264_Aac]_[MVO]_HEVC.mkv" -i "G:\\\xc0\xed\xe8\xec\xe5\\\xce\xed\xe3\xee\xe8\xed\xe3\xe8\\!_07_\xcb\xe5\xf2\xee_2017\\\xd1\xe5\xec\xfc - \xe2\xe5\xf0\xed\xee, \xf2\xf0\xe8 - \xed\xe5\xe2\xe5\xf0\xed\xee\\[AniDub]_Nana_Maru_San_Batsu_[06]_[720p_x264_Aac]_[MVO].mp4" -lavfi "[0:v]settb=AVTB,setpts=PTS-STARTPTS,format=pix_fmts=yuv420p10,fps=24000/1001,scale=1280:720:flags=bicubic[main];[1:v]settb=AVTB,setpts=PTS-STARTPTS,format=pix_fmts=yuv420p,fps=24000/1001,scale=1280:720:flags=bicubic[ref];[main][ref]ssim=eof_action=endall:stats_file='D\\:/Convert/FFMetrics/logs/ssim_logfile-6.txt'" -f null -
Input #0, matroska,webm, from 'G:\Аниме\Онгоинги\!_07_Лето_2017\Семь - верно, три - неверно\[AniDub]_Nana_Maru_San_Batsu_[06]_[720p_x264_Aac]_[MVO]_HEVC.mkv':
  Metadata:
    COMPATIBLE_BRANDS: isom
    MAJOR_BRAND     : isom
    MINOR_VERSION   : 1
    ENCODER         : Lavf61.7.100
  Duration: 00:23:00.86, start: -0.021000, bitrate: 728 kb/s
  Stream #0:0: Video: hevc (Main 10), yuv420p10le(tv, bt709, progressive), 1280x720 [SAR 1:1 DAR 16:9], 23.98 fps, 23.98 tbr, 1k tbn (default)
      Metadata:
        HANDLER_NAME    : 264
        VENDOR_ID       : [0][0][0][0]
        ENCODER         : Lavc61.19.100 libx265
        BPS             : 530173
        DURATION        : 00:22:59.711708333
        NUMBER_OF_FRAMES: 33080
        NUMBER_OF_BYTES : 91435723
        _STATISTICS_WRITING_APP: mkvpropedit v66.0.0 ('Josie') 64-bit
        _STATISTICS_WRITING_DATE_UTC: 2025-07-19 09:47:09
        _STATISTICS_TAGS: BPS DURATION NUMBER_OF_FRAMES NUMBER_OF_BYTES
  Stream #0:1(eng): Audio: aac (LC), 48000 Hz, stereo, fltp (default)
      Metadata:
        HANDLER_NAME    : GPAC ISO Audio Handler
        VENDOR_ID       : [0][0][0][0]
        ENCODER         : Lavc61.19.100 aac
        BPS             : 194307
        DURATION        : 00:23:00.842000000
        NUMBER_OF_FRAMES: 64728
        NUMBER_OF_BYTES : 33538456
        _STATISTICS_WRITING_APP: mkvpropedit v66.0.0 ('Josie') 64-bit
        _STATISTICS_WRITING_DATE_UTC: 2025-07-19 09:47:09
        _STATISTICS_TAGS: BPS DURATION NUMBER_OF_FRAMES NUMBER_OF_BYTES
Input #1, mov,mp4,m4a,3gp,3g2,mj2, from 'G:\Аниме\Онгоинги\!_07_Лето_2017\Семь - верно, три - неверно\[AniDub]_Nana_Maru_San_Batsu_[06]_[720p_x264_Aac]_[MVO].mp4':
  Metadata:
    major_brand     : isom
    minor_version   : 1
    compatible_brands: isom
    creation_time   : 2018-01-24T21:17:22.000000Z
    encoder         : Yamb 2.1.0.0 [http://yamb.unite-video.com]
  Duration: 00:23:00.84, start: 0.000000, bitrate: 1991 kb/s
  Stream #1:0[0x1](und): Video: h264 (High) (avc1 / 0x31637661), yuv420p(tv, bt709, progressive), 1280x720 [SAR 1:1 DAR 16:9], 1797 kb/s, 23.98 fps, 23.98 tbr, 24k tbn (default)
      Metadata:
        creation_time   : 2017-08-09T06:06:56.000000Z
        handler_name    : 264
        vendor_id       : [0][0][0][0]
  Stream #1:1[0x2](eng): Audio: aac (LC) (mp4a / 0x6134706D), 48000 Hz, stereo, fltp, 192 kb/s (default)
      Metadata:
        creation_time   : 2018-01-24T21:17:28.000000Z
        handler_name    : GPAC ISO Audio Handler
        vendor_id       : [0][0][0][0]
Stream mapping:
  Stream #0:0 (hevc) -> settb:default
  Stream #1:0 (h264) -> settb:default
  ssim:default -> Stream #0:0 (wrapped_avframe)
  Stream #0:1 -> #0:1 (aac (native) -> pcm_s16le (native))
Output #0, null, to 'pipe:':
  Metadata:
    COMPATIBLE_BRANDS: isom
    MAJOR_BRAND     : isom
    MINOR_VERSION   : 1
    encoder         : Lavf61.7.100
  Stream #0:0: Video: wrapped_avframe, yuv420p10le(tv, bt709, progressive), 1280x720 [SAR 1:1 DAR 16:9], q=2-31, 200 kb/s, 23.98 fps, 23.98 tbn
      Metadata:
        encoder         : Lavc61.19.100 wrapped_avframe
  Stream #0:1(eng): Audio: pcm_s16le, 48000 Hz, stereo, s16, 1536 kb/s (default)
      Metadata:
        HANDLER_NAME    : GPAC ISO Audio Handler
        VENDOR_ID       : [0][0][0][0]
        _STATISTICS_TAGS: BPS DURATION NUMBER_OF_FRAMES NUMBER_OF_BYTES
        BPS             : 194307
        DURATION        : 00:23:00.842000000
        NUMBER_OF_FRAMES: 64728
        NUMBER_OF_BYTES : 33538456
        _STATISTICS_WRITING_APP: mkvpropedit v66.0.0 ('Josie') 64-bit
        _STATISTICS_WRITING_DATE_UTC: 2025-07-19 09:47:09
        encoder         : Lavc61.19.100 pcm_s16le
frame=  448 fps=0.0 q=-0.0 size=N/A time=00:00:18.68 bitrate=N/A speed=36.1x    frame=  835 fps=817 q=-0.0 size=N/A time=00:00:34.82 bitrate=N/A speed=34.1x    frame= 1253 fps=809 q=-0.0 size=N/A time=00:00:52.26 bitrate=N/A speed=33.8x    frame= 1602 fps=780 q=-0.0 size=N/A time=00:01:06.81 bitrate=N/A speed=32.5x    frame= 1950 fps=757 q=-0.0 size=N/A time=00:01:21.33 bitrate=N/A speed=31.6x    frame= 2337 fps=757 q=-0.0 size=N/A time=00:01:37.47 bitrate=N/A speed=31.6x    frame= 2664 fps=738 q=-0.0 size=N/A time=00:01:51.11 bitrate=N/A speed=30.8x    frame= 3057 fps=740 q=-0.0 size=N/A time=00:02:07.50 bitrate=N/A speed=30.9x    frame= 3612 fps=777 q=-0.0 size=N/A time=00:02:30.65 bitrate=N/A speed=32.4x    frame= 4040 fps=784 q=-0.0 size=N/A time=00:02:48.50 bitrate=N/A speed=32.7x    frame= 4523 fps=797 q=-0.0 size=N/A time=00:03:08.64 bitrate=N/A speed=33.2x    frame= 4911 fps=795 q=-0.0 size=N/A time=00:03:24.82 bitrate=N/A speed=33.2x    frame= 5498 fps=820 q=-0.0 size=N/A time=00:03:49.31 bitrate=N/A speed=34.2x    frame= 6125 fps=849 q=-0.0 size=N/A time=00:04:15.46 bitrate=N/A speed=35.4x    frame= 6744 fps=872 q=-0.0 size=N/A time=00:04:41.28 bitrate=N/A speed=36.4x    frame= 7336 fps=890 q=-0.0 size=N/A time=00:05:05.97 bitrate=N/A speed=37.1x    frame= 7899 fps=901 q=-0.0 size=N/A time=00:05:29.45 bitrate=N/A speed=37.6x    frame= 8518 fps=918 q=-0.0 size=N/A time=00:05:55.27 bitrate=N/A speed=38.3x    frame= 9061 fps=925 q=-0.0 size=N/A time=00:06:17.91 bitrate=N/A speed=38.6x    frame= 9699 fps=941 q=-0.0 size=N/A time=00:06:44.52 bitrate=N/A speed=39.3x    frame=10299 fps=951 q=-0.0 size=N/A time=00:07:09.55 bitrate=N/A speed=39.6x    frame=10793 fps=950 q=-0.0 size=N/A time=00:07:30.15 bitrate=N/A speed=39.6x    frame=11361 fps=956 q=-0.0 size=N/A time=00:07:53.84 bitrate=N/A speed=39.9x    frame=11896 fps=961 q=-0.0 size=N/A time=00:08:16.16 bitrate=N/A speed=40.1x    frame=12501 fps=968 q=-0.0 size=N/A time=00:08:41.39 bitrate=N/A speed=40.4x    frame=13017 fps=970 q=-0.0 size=N/A time=00:09:02.91 bitrate=N/A speed=40.5x    frame=13651 fps=979 q=-0.0 size=N/A time=00:09:29.36 bitrate=N/A speed=40.8x    frame=14219 fps=984 q=-0.0 size=N/A time=00:09:53.05 bitrate=N/A speed=  41x    frame=14823 fps=990 q=-0.0 size=N/A time=00:10:18.24 bitrate=N/A speed=41.3x    frame=15368 fps=993 q=-0.0 size=N/A time=00:10:40.97 bitrate=N/A speed=41.4x    frame=15958 fps=997 q=-0.0 size=N/A time=00:11:05.58 bitrate=N/A speed=41.6x    frame=16499 fps=999 q=-0.0 size=N/A time=00:11:28.14 bitrate=N/A speed=41.7x    frame=17092 fps=1003 q=-0.0 size=N/A time=00:11:52.87 bitrate=N/A speed=41.8x    frame=17649 fps=1006 q=-0.0 size=N/A time=00:12:16.11 bitrate=N/A speed=  42x    frame=18168 fps=1006 q=-0.0 size=N/A time=00:12:37.75 bitrate=N/A speed=41.9x    frame=18630 fps=1003 q=-0.0 size=N/A time=00:12:57.02 bitrate=N/A speed=41.8x    frame=19186 fps=1005 q=-0.0 size=N/A time=00:13:20.21 bitrate=N/A speed=41.9x    frame=19753 fps=1007 q=-0.0 size=N/A time=00:13:43.86 bitrate=N/A speed=  42x    frame=20222 fps=1005 q=-0.0 size=N/A time=00:14:03.42 bitrate=N/A speed=41.9x    frame=20778 fps=1007 q=-0.0 size=N/A time=00:14:26.61 bitrate=N/A speed=  42x    frame=21269 fps=1005 q=-0.0 size=N/A time=00:14:47.09 bitrate=N/A speed=41.9x    frame=21816 fps=1007 q=-0.0 size=N/A time=00:15:09.90 bitrate=N/A speed=  42x    frame=22359 fps=1008 q=-0.0 size=N/A time=00:15:32.55 bitrate=N/A speed=  42x    frame=22887 fps=1008 q=-0.0 size=N/A time=00:15:54.57 bitrate=N/A speed=42.1x    frame=23450 fps=1010 q=-0.0 size=N/A time=00:16:18.06 bitrate=N/A speed=42.1x    frame=23977 fps=1011 q=-0.0 size=N/A time=00:16:40.04 bitrate=N/A speed=42.1x    frame=24541 fps=1012 q=-0.0 size=N/A time=00:17:03.56 bitrate=N/A speed=42.2x    frame=25105 fps=1014 q=-0.0 size=N/A time=00:17:27.08 bitrate=N/A speed=42.3x    frame=25668 fps=1015 q=-0.0 size=N/A time=00:17:50.56 bitrate=N/A speed=42.3x    frame=26044 fps=1010 q=-0.0 size=N/A time=00:18:06.25 bitrate=N/A speed=42.1x    frame=26495 fps=1007 q=-0.0 size=N/A time=00:18:25.06 bitrate=N/A speed=  42x    frame=26977 fps=1005 q=-0.0 size=N/A time=00:18:45.16 bitrate=N/A speed=41.9x    frame=27487 fps=1005 q=-0.0 size=N/A time=00:19:06.43 bitrate=N/A speed=41.9x    frame=28085 fps=1007 q=-0.0 size=N/A time=00:19:31.37 bitrate=N/A speed=  42x    frame=28620 fps=1008 q=-0.0 size=N/A time=00:19:53.69 bitrate=N/A speed=42.1x    frame=29082 fps=1006 q=-0.0 size=N/A time=00:20:12.96 bitrate=N/A speed=  42x    frame=29598 fps=1006 q=-0.0 size=N/A time=00:20:34.48 bitrate=N/A speed=  42x    frame=30074 fps=1005 q=-0.0 size=N/A time=00:20:54.33 bitrate=N/A speed=41.9x    frame=30520 fps=1002 q=-0.0 size=N/A time=00:21:12.93 bitrate=N/A speed=41.8x    frame=30888 fps=998 q=-0.0 size=N/A time=00:21:28.28 bitrate=N/A speed=41.6x    frame=31234 fps=992 q=-0.0 size=N/A time=00:21:42.71 bitrate=N/A speed=41.4x    frame=31537 fps=986 q=-0.0 size=N/A time=00:21:55.35 bitrate=N/A speed=41.1x    frame=31845 fps=979 q=-0.0 size=N/A time=00:22:08.20 bitrate=N/A speed=40.8x    frame=32132 fps=973 q=-0.0 size=N/A time=00:22:20.17 bitrate=N/A speed=40.6x    frame=32614 fps=972 q=-0.0 size=N/A time=00:22:40.27 bitrate=N/A speed=40.5x    [Parsed_ssim_10 @ 0000025fe2d222c0] SSIM Y:0.992632 (21.326396) U:0.992348 (21.162489) V:0.992295 (21.132327) All:0.992528 (21.265901)
[out#0/null @ 0000025fddf04ec0] video:14214KiB audio:258912KiB subtitle:0KiB other streams:0KiB global headers:0KiB muxing overhead: unknown
frame=33080 fps=975 q=-0.0 Lsize=N/A time=00:22:59.71 bitrate=N/A speed=40.7x    
